<svg xmlns="http://www.w3.org/2000/svg" version="1.1" xmlns:xlink="http://www.w3.org/1999/xlink" xmlns:svgjs="http://svgjs.com/svgjs" width="1920" height="1080" preserveAspectRatio="none" viewBox="0 0 1920 1080"><g mask="url(&quot;#SvgjsMask1012&quot;)" fill="none"><rect width="1920" height="1080" x="0" y="0" fill="#0e2a47"></rect><path d="M1818.23 305.85L1818.23 310.82L1832.16 310.82L1832.16 305.85zM1823.36 308.34 a8.8 8.8 0 1 0 17.6 0 a8.8 8.8 0 1 0 -17.6 0zM1811.96 342.36L1810.06 346.95L1835.27 357.39L1837.17 352.8zM1827.42 355.09 a8.8 8.8 0 1 0 17.6 0 a8.8 8.8 0 1 0 -17.6 0zM1792.2 373.68L1788.68 377.19L1821.52 410.03L1825.04 406.52zM1814.48 408.27 a8.8 8.8 0 1 0 17.6 0 a8.8 8.8 0 1 0 -17.6 0zM1761.95 395.06L1757.36 396.96L1768.77 424.51L1773.36 422.61zM1762.27 423.56 a8.8 8.8 0 1 0 17.6 0 a8.8 8.8 0 1 0 -17.6 0zM1725.83 403.23L1720.86 403.23L1720.86 418.31L1725.83 418.31zM1714.54 418.31 a8.8 8.8 0 1 0 17.6 0 a8.8 8.8 0 1 0 -17.6 0zM1689.32 396.96L1684.73 395.06L1676.74 414.35L1681.33 416.25zM1670.24 415.3 a8.8 8.8 0 1 0 17.6 0 a8.8 8.8 0 1 0 -17.6 0zM1658 377.19L1654.49 373.68L1643.55 384.61L1647.07 388.13zM1636.51 386.37 a8.8 8.8 0 1 0 17.6 0 a8.8 8.8 0 1 0 -17.6 0zM1636.62 346.95L1634.72 342.36L1600.16 356.67L1602.06 361.26zM1592.31 358.97 a8.8 8.8 0 1 0 17.6 0 a8.8 8.8 0 1 0 -17.6 0zM1628.45 310.82L1628.45 305.85L1586.23 305.85L1586.23 310.82zM1577.43 308.34 a8.8 8.8 0 1 0 17.6 0 a8.8 8.8 0 1 0 -17.6 0zM1634.72 274.32L1636.62 269.73L1607.21 257.54L1605.31 262.14zM1597.46 259.84 a8.8 8.8 0 1 0 17.6 0 a8.8 8.8 0 1 0 -17.6 0zM1654.49 243L1658 239.48L1634.64 216.12L1631.12 219.63zM1624.08 217.88 a8.8 8.8 0 1 0 17.6 0 a8.8 8.8 0 1 0 -17.6 0zM1684.73 221.62L1689.32 219.72L1676.3 188.27L1671.71 190.17zM1665.2 189.22 a8.8 8.8 0 1 0 17.6 0 a8.8 8.8 0 1 0 -17.6 0zM1720.86 213.45L1725.83 213.45L1725.83 193.99L1720.86 193.99zM1714.54 193.99 a8.8 8.8 0 1 0 17.6 0 a8.8 8.8 0 1 0 -17.6 0zM1757.36 219.72L1761.95 221.62L1769.28 203.93L1764.69 202.03zM1758.18 202.98 a8.8 8.8 0 1 0 17.6 0 a8.8 8.8 0 1 0 -17.6 0zM1788.68 239.48L1792.2 243L1816.39 218.81L1812.87 215.29zM1805.83 217.05 a8.8 8.8 0 1 0 17.6 0 a8.8 8.8 0 1 0 -17.6 0zM1810.06 269.73L1811.96 274.32L1826.12 268.45L1824.22 263.86zM1816.37 266.16 a8.8 8.8 0 1 0 17.6 0 a8.8 8.8 0 1 0 -17.6 0zM1628.42 308.34 a94.92 94.92 0 1 0 189.84 0 a94.92 94.92 0 1 0 -189.84 0z" fill="#488fdb"></path><path d="M1701.21 216.03 A93.92479999999999 93.92479999999999 0 0 1 1814.4 335.14M1814.4 335.14 A189.84959999999998 189.84959999999998 0 0 0 1701.21 216.03" fill="#2672c3" fill-rule="nonzero"></path><path d="M1671.02 257.52 a18.98 18.98 0 1 0 37.96 0 a18.98 18.98 0 1 0 -37.96 0zM1683.69 308.72 a13.29 13.29 0 1 0 26.58 0 a13.29 13.29 0 1 0 -26.58 0zM1771.54 355.63 a15.19 15.19 0 1 0 30.38 0 a15.19 15.19 0 1 0 -30.38 0zM1737.2 305.45 a18.98 18.98 0 1 0 37.96 0 a18.98 18.98 0 1 0 -37.96 0zM1711.1 345.94 a13.29 13.29 0 1 0 26.58 0 a13.29 13.29 0 1 0 -26.58 0zM1699.88 384.44 a8.54 8.54 0 1 0 17.08 0 a8.54 8.54 0 1 0 -17.08 0zM1766.77 264.61 a5.7 5.7 0 1 0 11.4 0 a5.7 5.7 0 1 0 -11.4 0zM1737.52 229.11 a11.39 11.39 0 1 0 22.78 0 a11.39 11.39 0 1 0 -22.78 0zM1647.43 282 a5.7 5.7 0 1 0 11.4 0 a5.7 5.7 0 1 0 -11.4 0zM1674.21 363.84 a6.64 6.64 0 1 0 13.28 0 a6.64 6.64 0 1 0 -13.28 0z" fill="#2672c3" fill-rule="nonzero"></path><path d="M285.33 130.62L285.33 134.34L301.97 134.34L301.97 130.62zM295.37 132.48 a6.6 6.6 0 1 0 13.2 0 a6.6 6.6 0 1 0 -13.2 0zM280.63 157.99L279.2 161.44L288.04 165.1L289.47 161.65zM282.16 163.38 a6.6 6.6 0 1 0 13.2 0 a6.6 6.6 0 1 0 -13.2 0zM265.8 181.49L263.17 184.12L284.44 205.39L287.07 202.75zM279.16 204.07 a6.6 6.6 0 1 0 13.2 0 a6.6 6.6 0 1 0 -13.2 0zM243.12 197.52L239.68 198.94L244.64 210.93L248.08 209.5zM239.76 210.21 a6.6 6.6 0 1 0 13.2 0 a6.6 6.6 0 1 0 -13.2 0zM216.03 203.65L212.3 203.65L212.3 238.41L216.03 238.41zM207.56 238.41 a6.6 6.6 0 1 0 13.2 0 a6.6 6.6 0 1 0 -13.2 0zM188.65 198.94L185.2 197.52L178.89 212.76L182.33 214.19zM174.01 213.47 a6.6 6.6 0 1 0 13.2 0 a6.6 6.6 0 1 0 -13.2 0zM165.16 184.12L162.52 181.49L138.99 205.01L141.63 207.65zM133.71 206.33 a6.6 6.6 0 1 0 13.2 0 a6.6 6.6 0 1 0 -13.2 0zM149.12 161.44L147.7 157.99L132.84 164.15L134.27 167.59zM126.95 165.87 a6.6 6.6 0 1 0 13.2 0 a6.6 6.6 0 1 0 -13.2 0zM142.99 134.34L142.99 130.62L116.43 130.62L116.43 134.34zM109.83 132.48 a6.6 6.6 0 1 0 13.2 0 a6.6 6.6 0 1 0 -13.2 0zM147.7 106.97L149.12 103.52L125.85 93.88L124.42 97.33zM118.54 95.6 a6.6 6.6 0 1 0 13.2 0 a6.6 6.6 0 1 0 -13.2 0zM162.52 83.47L165.16 80.84L141.3 56.99L138.67 59.62zM133.39 58.3 a6.6 6.6 0 1 0 13.2 0 a6.6 6.6 0 1 0 -13.2 0zM185.2 67.44L188.65 66.01L178.81 42.26L175.37 43.69zM170.49 42.97 a6.6 6.6 0 1 0 13.2 0 a6.6 6.6 0 1 0 -13.2 0zM212.3 61.31L216.03 61.31L216.03 36.13L212.3 36.13zM207.56 36.13 a6.6 6.6 0 1 0 13.2 0 a6.6 6.6 0 1 0 -13.2 0zM239.68 66.01L243.12 67.44L254.79 39.25L251.35 37.83zM246.47 38.54 a6.6 6.6 0 1 0 13.2 0 a6.6 6.6 0 1 0 -13.2 0zM263.17 80.84L265.8 83.47L289.97 59.3L287.34 56.67zM282.06 57.99 a6.6 6.6 0 1 0 13.2 0 a6.6 6.6 0 1 0 -13.2 0zM279.2 103.52L280.63 106.97L289 103.5L287.57 100.05zM281.68 101.78 a6.6 6.6 0 1 0 13.2 0 a6.6 6.6 0 1 0 -13.2 0zM142.97 132.48 a71.19 71.19 0 1 0 142.38 0 a71.19 71.19 0 1 0 -142.38 0z" fill="#488fdb"></path><path d="M164.14 81.82 A70.1936 70.1936 0 0 1 283.01 114.34M283.01 114.34 A142.3872 142.3872 0 0 0 164.14 81.82" fill="#2672c3" fill-rule="nonzero"></path><path d="M238.26 168.84 a14.24 14.24 0 1 0 28.48 0 a14.24 14.24 0 1 0 -28.48 0zM154.83 96.79 a10.68 10.68 0 1 0 21.36 0 a10.68 10.68 0 1 0 -21.36 0zM202.12 103.42 a14.24 14.24 0 1 0 28.48 0 a14.24 14.24 0 1 0 -28.48 0zM180.7 133.66 a10.68 10.68 0 1 0 21.36 0 a10.68 10.68 0 1 0 -21.36 0zM217.9 167.71 a2.85 2.85 0 1 0 5.7 0 a2.85 2.85 0 1 0 -5.7 0zM243.46 117.36 a14.24 14.24 0 1 0 28.48 0 a14.24 14.24 0 1 0 -28.48 0zM151.4 162.41 a8.54 8.54 0 1 0 17.08 0 a8.54 8.54 0 1 0 -17.08 0zM188.14 163.81 a4.98 4.98 0 1 0 9.96 0 a4.98 4.98 0 1 0 -9.96 0zM187.36 79.62 a4.98 4.98 0 1 0 9.96 0 a4.98 4.98 0 1 0 -9.96 0zM210.08 191.91 a7.12 7.12 0 1 0 14.24 0 a7.12 7.12 0 1 0 -14.24 0z" fill="#2672c3" fill-rule="nonzero"></path><path d="M933.11 580.1L933.11 585.07L959.3 585.07L959.3 580.1zM950.5 582.59 a8.8 8.8 0 1 0 17.6 0 a8.8 8.8 0 1 0 -17.6 0zM926.83 616.6L924.93 621.2L964.11 637.42L966.01 632.83zM956.26 635.13 a8.8 8.8 0 1 0 17.6 0 a8.8 8.8 0 1 0 -17.6 0zM907.07 647.93L903.56 651.44L925.84 673.73L929.36 670.22zM918.8 671.97 a8.8 8.8 0 1 0 17.6 0 a8.8 8.8 0 1 0 -17.6 0zM876.82 669.3L872.23 671.21L888.72 711.01L893.31 709.11zM882.21 710.06 a8.8 8.8 0 1 0 17.6 0 a8.8 8.8 0 1 0 -17.6 0zM840.7 677.48L835.73 677.48L835.73 698.11L840.7 698.11zM829.41 698.11 a8.8 8.8 0 1 0 17.6 0 a8.8 8.8 0 1 0 -17.6 0zM804.2 671.21L799.61 669.3L784.63 705.46L789.22 707.36zM778.13 706.41 a8.8 8.8 0 1 0 17.6 0 a8.8 8.8 0 1 0 -17.6 0zM772.87 651.44L769.36 647.93L744.86 672.42L748.38 675.94zM737.82 674.18 a8.8 8.8 0 1 0 17.6 0 a8.8 8.8 0 1 0 -17.6 0zM751.5 621.2L749.59 616.6L714.28 631.23L716.19 635.82zM706.44 633.53 a8.8 8.8 0 1 0 17.6 0 a8.8 8.8 0 1 0 -17.6 0zM743.32 585.07L743.32 580.1L723.31 580.1L723.31 585.07zM714.51 582.59 a8.8 8.8 0 1 0 17.6 0 a8.8 8.8 0 1 0 -17.6 0zM749.59 548.57L751.5 543.98L708.29 526.08L706.39 530.67zM698.54 528.37 a8.8 8.8 0 1 0 17.6 0 a8.8 8.8 0 1 0 -17.6 0zM769.36 517.24L772.87 513.73L741.92 482.77L738.4 486.29zM731.36 484.53 a8.8 8.8 0 1 0 17.6 0 a8.8 8.8 0 1 0 -17.6 0zM799.61 495.87L804.2 493.97L791.32 462.87L786.72 464.77zM780.22 463.82 a8.8 8.8 0 1 0 17.6 0 a8.8 8.8 0 1 0 -17.6 0zM835.73 487.69L840.7 487.69L840.7 469.13L835.73 469.13zM829.41 469.13 a8.8 8.8 0 1 0 17.6 0 a8.8 8.8 0 1 0 -17.6 0zM872.23 493.97L876.82 495.87L882.65 481.8L878.06 479.9zM871.56 480.85 a8.8 8.8 0 1 0 17.6 0 a8.8 8.8 0 1 0 -17.6 0zM903.56 513.73L907.07 517.24L916.11 508.2L912.6 504.69zM905.56 506.44 a8.8 8.8 0 1 0 17.6 0 a8.8 8.8 0 1 0 -17.6 0zM924.93 543.98L926.83 548.57L947.37 540.06L945.47 535.47zM937.62 537.77 a8.8 8.8 0 1 0 17.6 0 a8.8 8.8 0 1 0 -17.6 0zM743.29 582.59 a94.92 94.92 0 1 0 189.84 0 a94.92 94.92 0 1 0 -189.84 0z" fill="#488fdb"></path><path d="M929.26 555.72 A93.92479999999999 93.92479999999999 0 0 1 816.15 674.91M816.15 674.91 A189.84959999999998 189.84959999999998 0 0 0 929.26 555.72" fill="#2672c3" fill-rule="nonzero"></path><path d="M881.92 617.27 a18.98 18.98 0 1 0 37.96 0 a18.98 18.98 0 1 0 -37.96 0zM795.65 639.58 a18.98 18.98 0 1 0 37.96 0 a18.98 18.98 0 1 0 -37.96 0zM852.71 620.69 a4.75 4.75 0 1 0 9.5 0 a4.75 4.75 0 1 0 -9.5 0zM748.01 608.92 a11.39 11.39 0 1 0 22.78 0 a11.39 11.39 0 1 0 -22.78 0zM837.63 563.4 a18.98 18.98 0 1 0 37.96 0 a18.98 18.98 0 1 0 -37.96 0zM866.41 498.78 a4.75 4.75 0 1 0 9.5 0 a4.75 4.75 0 1 0 -9.5 0zM810.6 499.19 a8.54 8.54 0 1 0 17.08 0 a8.54 8.54 0 1 0 -17.08 0zM808.04 552.2 a5.7 5.7 0 1 0 11.4 0 a5.7 5.7 0 1 0 -11.4 0zM787.14 593.85 a3.8 3.8 0 1 0 7.6 0 a3.8 3.8 0 1 0 -7.6 0zM771.06 521.19 a12.34 12.34 0 1 0 24.68 0 a12.34 12.34 0 1 0 -24.68 0z" fill="#2672c3" fill-rule="nonzero"></path><path d="M502.76 817.47L502.76 822.44L531.6 822.44L531.6 817.47zM522.8 819.95 a8.8 8.8 0 1 0 17.6 0 a8.8 8.8 0 1 0 -17.6 0zM496.49 853.97L494.59 858.56L514.72 866.9L516.62 862.31zM506.87 864.6 a8.8 8.8 0 1 0 17.6 0 a8.8 8.8 0 1 0 -17.6 0zM476.73 885.29L473.21 888.81L497.45 913.05L500.97 909.53zM490.41 911.29 a8.8 8.8 0 1 0 17.6 0 a8.8 8.8 0 1 0 -17.6 0zM446.48 906.67L441.89 908.57L452.38 933.89L456.97 931.99zM445.87 932.94 a8.8 8.8 0 1 0 17.6 0 a8.8 8.8 0 1 0 -17.6 0zM410.36 914.84L405.39 914.84L405.39 928.23L410.36 928.23zM399.07 928.23 a8.8 8.8 0 1 0 17.6 0 a8.8 8.8 0 1 0 -17.6 0zM373.85 908.57L369.26 906.67L355.68 939.47L360.27 941.37zM349.17 940.42 a8.8 8.8 0 1 0 17.6 0 a8.8 8.8 0 1 0 -17.6 0zM342.53 888.81L339.02 885.29L311.6 912.71L315.11 916.22zM304.56 914.46 a8.8 8.8 0 1 0 17.6 0 a8.8 8.8 0 1 0 -17.6 0zM321.15 858.56L319.25 853.97L301.84 861.18L303.74 865.77zM293.99 863.48 a8.8 8.8 0 1 0 17.6 0 a8.8 8.8 0 1 0 -17.6 0zM312.98 822.44L312.98 817.47L295.16 817.47L295.16 822.44zM286.36 819.95 a8.8 8.8 0 1 0 17.6 0 a8.8 8.8 0 1 0 -17.6 0zM319.25 785.93L321.15 781.34L308.2 775.98L306.3 780.57zM298.45 778.27 a8.8 8.8 0 1 0 17.6 0 a8.8 8.8 0 1 0 -17.6 0zM339.02 754.61L342.53 751.09L324.74 733.3L321.22 736.82zM314.18 735.06 a8.8 8.8 0 1 0 17.6 0 a8.8 8.8 0 1 0 -17.6 0zM369.26 733.23L373.85 731.33L360.48 699.05L355.89 700.95zM349.39 700 a8.8 8.8 0 1 0 17.6 0 a8.8 8.8 0 1 0 -17.6 0zM405.39 725.06L410.36 725.06L410.36 712.23L405.39 712.23zM399.07 712.23 a8.8 8.8 0 1 0 17.6 0 a8.8 8.8 0 1 0 -17.6 0zM441.89 731.33L446.48 733.23L452.66 718.3L448.07 716.4zM441.57 717.35 a8.8 8.8 0 1 0 17.6 0 a8.8 8.8 0 1 0 -17.6 0zM473.21 751.09L476.73 754.61L507.11 724.22L503.6 720.71zM496.55 722.47 a8.8 8.8 0 1 0 17.6 0 a8.8 8.8 0 1 0 -17.6 0zM494.59 781.34L496.49 785.93L518.1 776.98L516.2 772.39zM508.35 774.69 a8.8 8.8 0 1 0 17.6 0 a8.8 8.8 0 1 0 -17.6 0zM312.95 819.95 a94.92 94.92 0 1 0 189.84 0 a94.92 94.92 0 1 0 -189.84 0z" fill="#488fdb"></path><path d="M318 789.39 A93.92479999999999 93.92479999999999 0 0 1 479.14 757.25M479.14 757.25 A189.84959999999998 189.84959999999998 0 0 0 318 789.39" fill="#2672c3" fill-rule="nonzero"></path><path d="M399.44 784.13 a18.98 18.98 0 1 0 37.96 0 a18.98 18.98 0 1 0 -37.96 0zM409.75 844.26 a18.98 18.98 0 1 0 37.96 0 a18.98 18.98 0 1 0 -37.96 0zM494.54 814.74 a3.8 3.8 0 1 0 7.6 0 a3.8 3.8 0 1 0 -7.6 0zM380.63 841.5 a4.75 4.75 0 1 0 9.5 0 a4.75 4.75 0 1 0 -9.5 0zM375.34 898.22 a14.24 14.24 0 1 0 28.48 0 a14.24 14.24 0 1 0 -28.48 0zM483.23 860.39 a4.75 4.75 0 1 0 9.5 0 a4.75 4.75 0 1 0 -9.5 0zM463.44 826.6 a6.64 6.64 0 1 0 13.28 0 a6.64 6.64 0 1 0 -13.28 0zM347.91 886.51 a4.75 4.75 0 1 0 9.5 0 a4.75 4.75 0 1 0 -9.5 0zM342.67 849.48 a9.49 9.49 0 1 0 18.98 0 a9.49 9.49 0 1 0 -18.98 0zM340.44 758.4 a10.44 10.44 0 1 0 20.88 0 a10.44 10.44 0 1 0 -20.88 0z" fill="#2672c3" fill-rule="nonzero"></path><path d="M666.98 318.06L666.98 321.17L683.41 321.17L683.41 318.06zM677.91 319.62 a5.5 5.5 0 1 0 11 0 a5.5 5.5 0 1 0 -11 0zM663.06 340.88L661.87 343.75L677.37 350.17L678.56 347.3zM672.47 348.74 a5.5 5.5 0 1 0 11 0 a5.5 5.5 0 1 0 -11 0zM650.71 360.46L648.51 362.65L667.3 381.44L669.5 379.24zM662.9 380.34 a5.5 5.5 0 1 0 11 0 a5.5 5.5 0 1 0 -11 0zM631.8 373.82L628.93 375.01L637.33 395.27L640.2 394.08zM633.26 394.67 a5.5 5.5 0 1 0 11 0 a5.5 5.5 0 1 0 -11 0zM609.23 378.93L606.12 378.93L606.12 391.38L609.23 391.38zM602.17 391.38 a5.5 5.5 0 1 0 11 0 a5.5 5.5 0 1 0 -11 0zM586.41 375.01L583.54 373.82L579.16 384.39L582.03 385.57zM575.1 384.98 a5.5 5.5 0 1 0 11 0 a5.5 5.5 0 1 0 -11 0zM566.83 362.65L564.64 360.46L552.75 372.34L554.95 374.54zM548.35 373.44 a5.5 5.5 0 1 0 11 0 a5.5 5.5 0 1 0 -11 0zM553.47 343.75L552.29 340.88L526.35 351.62L527.54 354.49zM521.45 353.06 a5.5 5.5 0 1 0 11 0 a5.5 5.5 0 1 0 -11 0zM548.36 321.17L548.36 318.06L523.98 318.06L523.98 321.17zM518.48 319.62 a5.5 5.5 0 1 0 11 0 a5.5 5.5 0 1 0 -11 0zM552.29 298.36L553.47 295.49L538.54 289.3L537.36 292.17zM532.45 290.74 a5.5 5.5 0 1 0 11 0 a5.5 5.5 0 1 0 -11 0zM564.64 278.78L566.83 276.58L547.06 256.81L544.87 259.01zM540.47 257.91 a5.5 5.5 0 1 0 11 0 a5.5 5.5 0 1 0 -11 0zM583.54 265.42L586.41 264.23L582.55 254.92L579.68 256.11zM575.62 255.51 a5.5 5.5 0 1 0 11 0 a5.5 5.5 0 1 0 -11 0zM606.12 260.31L609.23 260.31L609.23 239.67L606.12 239.67zM602.17 239.67 a5.5 5.5 0 1 0 11 0 a5.5 5.5 0 1 0 -11 0zM628.93 264.23L631.8 265.42L639.24 247.48L636.37 246.29zM632.3 246.88 a5.5 5.5 0 1 0 11 0 a5.5 5.5 0 1 0 -11 0zM648.51 276.58L650.71 278.78L656.65 272.84L654.45 270.64zM650.05 271.74 a5.5 5.5 0 1 0 11 0 a5.5 5.5 0 1 0 -11 0zM661.87 295.49L663.06 298.36L674.82 293.48L673.63 290.62zM668.73 292.05 a5.5 5.5 0 1 0 11 0 a5.5 5.5 0 1 0 -11 0zM548.34 319.62 a59.33 59.33 0 1 0 118.66 0 a59.33 59.33 0 1 0 -118.66 0z" fill="#488fdb"></path><path d="M641 270.54 A58.328 58.328 0 0 1 633.62 372.97M633.62 372.97 A118.656 118.656 0 0 0 641 270.54" fill="#2672c3" fill-rule="nonzero"></path><path d="M616.94 330.4 a11.87 11.87 0 1 0 23.74 0 a11.87 11.87 0 1 0 -23.74 0zM613.85 299.97 a7.12 7.12 0 1 0 14.24 0 a7.12 7.12 0 1 0 -14.24 0zM589.47 342.97 a8.9 8.9 0 1 0 17.8 0 a8.9 8.9 0 1 0 -17.8 0zM626.37 368.28 a4.75 4.75 0 1 0 9.5 0 a4.75 4.75 0 1 0 -9.5 0zM559.07 287.42 a4.75 4.75 0 1 0 9.5 0 a4.75 4.75 0 1 0 -9.5 0zM657.63 326.86 a4.15 4.15 0 1 0 8.3 0 a4.15 4.15 0 1 0 -8.3 0zM634.33 280.32 a7.12 7.12 0 1 0 14.24 0 a7.12 7.12 0 1 0 -14.24 0zM604.88 267.68 a7.12 7.12 0 1 0 14.24 0 a7.12 7.12 0 1 0 -14.24 0zM552.91 332.54 a11.87 11.87 0 1 0 23.74 0 a11.87 11.87 0 1 0 -23.74 0zM592.25 372.75 a4.75 4.75 0 1 0 9.5 0 a4.75 4.75 0 1 0 -9.5 0z" fill="#2672c3" fill-rule="nonzero"></path><path d="M1214.48 654.21L1214.48 656.69L1220.91 656.69L1220.91 654.21zM1216.51 655.45 a4.4 4.4 0 1 0 8.8 0 a4.4 4.4 0 1 0 -8.8 0zM1211.34 672.46L1210.39 674.75L1217.33 677.63L1218.28 675.33zM1213.41 676.48 a4.4 4.4 0 1 0 8.8 0 a4.4 4.4 0 1 0 -8.8 0zM1201.46 688.12L1199.71 689.88L1212.76 702.93L1214.52 701.17zM1209.24 702.05 a4.4 4.4 0 1 0 8.8 0 a4.4 4.4 0 1 0 -8.8 0zM1186.34 698.81L1184.04 699.76L1186.76 706.32L1189.06 705.37zM1183.51 705.84 a4.4 4.4 0 1 0 8.8 0 a4.4 4.4 0 1 0 -8.8 0zM1168.28 702.9L1165.79 702.9L1165.79 724.91L1168.28 724.91zM1162.63 724.91 a4.4 4.4 0 1 0 8.8 0 a4.4 4.4 0 1 0 -8.8 0zM1150.03 699.76L1147.73 698.81L1140.6 716.03L1142.89 716.98zM1137.34 716.51 a4.4 4.4 0 1 0 8.8 0 a4.4 4.4 0 1 0 -8.8 0zM1134.36 689.88L1132.61 688.12L1123.67 697.06L1125.43 698.82zM1120.15 697.94 a4.4 4.4 0 1 0 8.8 0 a4.4 4.4 0 1 0 -8.8 0zM1123.68 674.75L1122.72 672.46L1117.08 674.8L1118.03 677.09zM1113.15 675.95 a4.4 4.4 0 1 0 8.8 0 a4.4 4.4 0 1 0 -8.8 0zM1119.59 656.69L1119.59 654.21L1101.14 654.21L1101.14 656.69zM1096.74 655.45 a4.4 4.4 0 1 0 8.8 0 a4.4 4.4 0 1 0 -8.8 0zM1122.72 638.44L1123.68 636.15L1109.23 630.16L1108.27 632.46zM1104.35 631.31 a4.4 4.4 0 1 0 8.8 0 a4.4 4.4 0 1 0 -8.8 0zM1132.61 622.78L1134.36 621.02L1123.2 609.86L1121.44 611.61zM1117.92 610.74 a4.4 4.4 0 1 0 8.8 0 a4.4 4.4 0 1 0 -8.8 0zM1147.73 612.09L1150.03 611.14L1143.36 595.04L1141.06 595.99zM1137.81 595.51 a4.4 4.4 0 1 0 8.8 0 a4.4 4.4 0 1 0 -8.8 0zM1165.79 608L1168.28 608L1168.28 600.56L1165.79 600.56zM1162.63 600.56 a4.4 4.4 0 1 0 8.8 0 a4.4 4.4 0 1 0 -8.8 0zM1184.04 611.14L1186.34 612.09L1195.19 590.73L1192.89 589.78zM1189.64 590.26 a4.4 4.4 0 1 0 8.8 0 a4.4 4.4 0 1 0 -8.8 0zM1199.71 621.02L1201.46 622.78L1210.82 613.42L1209.06 611.67zM1205.54 612.55 a4.4 4.4 0 1 0 8.8 0 a4.4 4.4 0 1 0 -8.8 0zM1210.39 636.15L1211.34 638.44L1229.94 630.74L1228.99 628.44zM1225.07 629.59 a4.4 4.4 0 1 0 8.8 0 a4.4 4.4 0 1 0 -8.8 0zM1119.57 655.45 a47.46 47.46 0 1 0 94.92 0 a47.46 47.46 0 1 0 -94.92 0z" fill="#488fdb"></path><path d="M1197.99 619.47 A46.462399999999995 46.462399999999995 0 0 1 1182.81 700.22M1182.81 700.22 A94.92479999999999 94.92479999999999 0 0 0 1197.99 619.47" fill="#2672c3" fill-rule="nonzero"></path><path d="M1155.34 698.37 a3.32 3.32 0 1 0 6.64 0 a3.32 3.32 0 1 0 -6.64 0zM1128.93 646.71 a9.49 9.49 0 1 0 18.98 0 a9.49 9.49 0 1 0 -18.98 0zM1161.41 641.61 a9.49 9.49 0 1 0 18.98 0 a9.49 9.49 0 1 0 -18.98 0zM1189.88 644.17 a1.9 1.9 0 1 0 3.8 0 a1.9 1.9 0 1 0 -3.8 0zM1164.44 682 a8.54 8.54 0 1 0 17.08 0 a8.54 8.54 0 1 0 -17.08 0zM1135.26 676.9 a9.49 9.49 0 1 0 18.98 0 a9.49 9.49 0 1 0 -18.98 0zM1198.92 626.24 a2.37 2.37 0 1 0 4.74 0 a2.37 2.37 0 1 0 -4.74 0zM1187.58 668.81 a7.59 7.59 0 1 0 15.18 0 a7.59 7.59 0 1 0 -15.18 0zM1174.84 661.76 a1.9 1.9 0 1 0 3.8 0 a1.9 1.9 0 1 0 -3.8 0zM1151.98 614.37 a4.75 4.75 0 1 0 9.5 0 a4.75 4.75 0 1 0 -9.5 0z" fill="#2672c3" fill-rule="nonzero"></path><path d="M1770.08 855L1770.08 859.97L1804.32 859.97L1804.32 855zM1795.52 857.48 a8.8 8.8 0 1 0 17.6 0 a8.8 8.8 0 1 0 -17.6 0zM1763.81 891.5L1761.91 896.09L1804.53 913.75L1806.44 909.16zM1796.69 911.45 a8.8 8.8 0 1 0 17.6 0 a8.8 8.8 0 1 0 -17.6 0zM1744.04 922.82L1740.53 926.34L1762.49 948.3L1766.01 944.79zM1755.45 946.54 a8.8 8.8 0 1 0 17.6 0 a8.8 8.8 0 1 0 -17.6 0zM1713.8 944.2L1709.21 946.1L1725.73 985.99L1730.32 984.09zM1719.23 985.04 a8.8 8.8 0 1 0 17.6 0 a8.8 8.8 0 1 0 -17.6 0zM1677.67 952.37L1672.7 952.37L1672.7 980.07L1677.67 980.07zM1666.39 980.07 a8.8 8.8 0 1 0 17.6 0 a8.8 8.8 0 1 0 -17.6 0zM1641.17 946.1L1636.58 944.2L1627.19 966.86L1631.78 968.76zM1620.69 967.81 a8.8 8.8 0 1 0 17.6 0 a8.8 8.8 0 1 0 -17.6 0zM1609.85 926.34L1606.33 922.82L1597.75 931.41L1601.26 934.92zM1590.71 933.16 a8.8 8.8 0 1 0 17.6 0 a8.8 8.8 0 1 0 -17.6 0zM1588.47 896.09L1586.57 891.5L1571.42 897.78L1573.32 902.37zM1563.57 900.07 a8.8 8.8 0 1 0 17.6 0 a8.8 8.8 0 1 0 -17.6 0zM1580.3 859.97L1580.3 855L1548.84 855L1548.84 859.97zM1540.04 857.48 a8.8 8.8 0 1 0 17.6 0 a8.8 8.8 0 1 0 -17.6 0zM1586.57 823.46L1588.47 818.87L1547.02 801.7L1545.11 806.29zM1537.26 804 a8.8 8.8 0 1 0 17.6 0 a8.8 8.8 0 1 0 -17.6 0zM1606.33 792.14L1609.85 788.63L1601.33 780.1L1597.81 783.62zM1590.77 781.86 a8.8 8.8 0 1 0 17.6 0 a8.8 8.8 0 1 0 -17.6 0zM1636.58 770.76L1641.17 768.86L1627.29 735.36L1622.7 737.26zM1616.2 736.31 a8.8 8.8 0 1 0 17.6 0 a8.8 8.8 0 1 0 -17.6 0zM1672.7 762.59L1677.67 762.59L1677.67 734.01L1672.7 734.01zM1666.39 734.01 a8.8 8.8 0 1 0 17.6 0 a8.8 8.8 0 1 0 -17.6 0zM1709.21 768.86L1713.8 770.76L1726.77 739.44L1722.18 737.54zM1715.67 738.49 a8.8 8.8 0 1 0 17.6 0 a8.8 8.8 0 1 0 -17.6 0zM1740.53 788.63L1744.04 792.14L1767.58 768.61L1764.06 765.09zM1757.02 766.85 a8.8 8.8 0 1 0 17.6 0 a8.8 8.8 0 1 0 -17.6 0zM1761.91 818.87L1763.81 823.46L1798.94 808.91L1797.04 804.32zM1789.19 806.61 a8.8 8.8 0 1 0 17.6 0 a8.8 8.8 0 1 0 -17.6 0zM1580.27 857.48 a94.92 94.92 0 1 0 189.84 0 a94.92 94.92 0 1 0 -189.84 0z" fill="#488fdb"></path><path d="M1610.4 788.1 A93.92479999999999 93.92479999999999 0 0 1 1767.62 835.87M1767.62 835.87 A189.84959999999998 189.84959999999998 0 0 0 1610.4 788.1" fill="#2672c3" fill-rule="nonzero"></path><path d="M1646.91 883.09 a18.98 18.98 0 1 0 37.96 0 a18.98 18.98 0 1 0 -37.96 0zM1649.56 774.48 a9.49 9.49 0 1 0 18.98 0 a9.49 9.49 0 1 0 -18.98 0zM1701.33 899.95 a18.04 18.04 0 1 0 36.08 0 a18.04 18.04 0 1 0 -36.08 0zM1592.51 899.26 a15.19 15.19 0 1 0 30.38 0 a15.19 15.19 0 1 0 -30.38 0zM1685.49 790.31 a15.19 15.19 0 1 0 30.38 0 a15.19 15.19 0 1 0 -30.38 0zM1670.89 840.42 a5.7 5.7 0 1 0 11.4 0 a5.7 5.7 0 1 0 -11.4 0zM1611.41 823.49 a18.98 18.98 0 1 0 37.96 0 a18.98 18.98 0 1 0 -37.96 0zM1730.2 850.43 a18.98 18.98 0 1 0 37.96 0 a18.98 18.98 0 1 0 -37.96 0zM1663.74 939.66 a12.34 12.34 0 1 0 24.68 0 a12.34 12.34 0 1 0 -24.68 0zM1587.08 842.08 a4.75 4.75 0 1 0 9.5 0 a4.75 4.75 0 1 0 -9.5 0z" fill="#2672c3" fill-rule="nonzero"></path><path d="M1225.27 979.21L1225.27 982.32L1238.67 982.32L1238.67 979.21zM1233.17 980.76 a5.5 5.5 0 1 0 11 0 a5.5 5.5 0 1 0 -11 0zM1221.35 1002.03L1220.16 1004.89L1237.07 1011.9L1238.26 1009.03zM1232.16 1010.46 a5.5 5.5 0 1 0 11 0 a5.5 5.5 0 1 0 -11 0zM1209 1021.6L1206.8 1023.8L1227.45 1044.45L1229.65 1042.26zM1223.05 1043.36 a5.5 5.5 0 1 0 11 0 a5.5 5.5 0 1 0 -11 0zM1190.09 1034.96L1187.22 1036.15L1194.01 1052.53L1196.88 1051.34zM1189.94 1051.94 a5.5 5.5 0 1 0 11 0 a5.5 5.5 0 1 0 -11 0zM1167.51 1040.07L1164.41 1040.07L1164.41 1066.13L1167.51 1066.13zM1160.46 1066.13 a5.5 5.5 0 1 0 11 0 a5.5 5.5 0 1 0 -11 0zM1144.7 1036.15L1141.83 1034.96L1136.11 1048.77L1138.98 1049.96zM1132.04 1049.37 a5.5 5.5 0 1 0 11 0 a5.5 5.5 0 1 0 -11 0zM1125.12 1023.8L1122.93 1021.6L1114.45 1030.08L1116.64 1032.28zM1110.05 1031.18 a5.5 5.5 0 1 0 11 0 a5.5 5.5 0 1 0 -11 0zM1111.76 1004.89L1110.57 1002.03L1084.47 1012.84L1085.66 1015.71zM1079.57 1014.27 a5.5 5.5 0 1 0 11 0 a5.5 5.5 0 1 0 -11 0zM1106.65 982.32L1106.65 979.21L1096.85 979.21L1096.85 982.32zM1091.35 980.76 a5.5 5.5 0 1 0 11 0 a5.5 5.5 0 1 0 -11 0zM1110.57 959.5L1111.76 956.63L1104.46 953.61L1103.28 956.48zM1098.37 955.04 a5.5 5.5 0 1 0 11 0 a5.5 5.5 0 1 0 -11 0zM1122.93 939.93L1125.12 937.73L1119.27 931.88L1117.08 934.08zM1112.68 932.98 a5.5 5.5 0 1 0 11 0 a5.5 5.5 0 1 0 -11 0zM1141.83 926.57L1144.7 925.38L1137.51 908.02L1134.64 909.21zM1130.57 908.61 a5.5 5.5 0 1 0 11 0 a5.5 5.5 0 1 0 -11 0zM1164.41 921.46L1167.51 921.46L1167.51 893.12L1164.41 893.12zM1160.46 893.12 a5.5 5.5 0 1 0 11 0 a5.5 5.5 0 1 0 -11 0zM1187.22 925.38L1190.09 926.57L1195.81 912.76L1192.94 911.57zM1188.87 912.17 a5.5 5.5 0 1 0 11 0 a5.5 5.5 0 1 0 -11 0zM1206.8 937.73L1209 939.93L1221.19 927.73L1219 925.53zM1214.6 926.63 a5.5 5.5 0 1 0 11 0 a5.5 5.5 0 1 0 -11 0zM1220.16 956.63L1221.35 959.5L1239.07 952.16L1237.88 949.29zM1232.97 950.73 a5.5 5.5 0 1 0 11 0 a5.5 5.5 0 1 0 -11 0zM1106.63 980.76 a59.33 59.33 0 1 0 118.66 0 a59.33 59.33 0 1 0 -118.66 0z" fill="#488fdb"></path><path d="M1213.29 1016.53 A58.328 58.328 0 0 1 1111.37 1003.98M1111.37 1003.98 A118.656 118.656 0 0 0 1213.29 1016.53" fill="#2672c3" fill-rule="nonzero"></path><path d="M1110.81 1000.65 a9.49 9.49 0 1 0 18.98 0 a9.49 9.49 0 1 0 -18.98 0zM1154.52 996.43 a11.87 11.87 0 1 0 23.74 0 a11.87 11.87 0 1 0 -23.74 0zM1121.85 944.43 a7.12 7.12 0 1 0 14.24 0 a7.12 7.12 0 1 0 -14.24 0zM1172.14 926.07 a3.56 3.56 0 1 0 7.12 0 a3.56 3.56 0 1 0 -7.12 0zM1164.58 957.69 a11.87 11.87 0 1 0 23.74 0 a11.87 11.87 0 1 0 -23.74 0zM1173.51 1021.97 a3.56 3.56 0 1 0 7.12 0 a3.56 3.56 0 1 0 -7.12 0zM1197.48 971.39 a8.31 8.31 0 1 0 16.62 0 a8.31 8.31 0 1 0 -16.62 0zM1110.77 961.9 a3.56 3.56 0 1 0 7.12 0 a3.56 3.56 0 1 0 -7.12 0zM1190.4 999.62 a4.75 4.75 0 1 0 9.5 0 a4.75 4.75 0 1 0 -9.5 0zM1134.4 968.05 a8.31 8.31 0 1 0 16.62 0 a8.31 8.31 0 1 0 -16.62 0z" fill="#2672c3" fill-rule="nonzero"></path><path d="M1369.06 250.64L1369.06 255.61L1384.37 255.61L1384.37 250.64zM1375.57 253.12 a8.8 8.8 0 1 0 17.6 0 a8.8 8.8 0 1 0 -17.6 0zM1362.79 287.14L1360.89 291.73L1387.23 302.64L1389.13 298.05zM1379.38 300.35 a8.8 8.8 0 1 0 17.6 0 a8.8 8.8 0 1 0 -17.6 0zM1343.02 318.46L1339.51 321.98L1365 347.47L1368.52 343.95zM1357.96 345.71 a8.8 8.8 0 1 0 17.6 0 a8.8 8.8 0 1 0 -17.6 0zM1312.78 339.84L1308.19 341.74L1325.01 382.36L1329.6 380.45zM1318.5 381.4 a8.8 8.8 0 1 0 17.6 0 a8.8 8.8 0 1 0 -17.6 0zM1276.65 348.01L1271.68 348.01L1271.68 375.3L1276.65 375.3zM1265.37 375.3 a8.8 8.8 0 1 0 17.6 0 a8.8 8.8 0 1 0 -17.6 0zM1240.15 341.74L1235.56 339.84L1222.53 371.3L1227.12 373.2zM1216.02 372.25 a8.8 8.8 0 1 0 17.6 0 a8.8 8.8 0 1 0 -17.6 0zM1208.83 321.98L1205.31 318.46L1189.57 334.21L1193.08 337.73zM1182.52 335.97 a8.8 8.8 0 1 0 17.6 0 a8.8 8.8 0 1 0 -17.6 0zM1187.45 291.73L1185.55 287.14L1166.22 295.15L1168.12 299.74zM1158.37 297.44 a8.8 8.8 0 1 0 17.6 0 a8.8 8.8 0 1 0 -17.6 0zM1179.28 255.61L1179.28 250.64L1137.91 250.64L1137.91 255.61zM1129.11 253.12 a8.8 8.8 0 1 0 17.6 0 a8.8 8.8 0 1 0 -17.6 0zM1185.55 219.1L1187.45 214.51L1162.16 204.04L1160.26 208.63zM1152.41 206.33 a8.8 8.8 0 1 0 17.6 0 a8.8 8.8 0 1 0 -17.6 0zM1205.31 187.78L1208.83 184.27L1187.88 163.32L1184.37 166.84zM1177.32 165.08 a8.8 8.8 0 1 0 17.6 0 a8.8 8.8 0 1 0 -17.6 0zM1235.56 166.4L1240.15 164.5L1235.49 153.25L1230.9 155.15zM1224.39 154.2 a8.8 8.8 0 1 0 17.6 0 a8.8 8.8 0 1 0 -17.6 0zM1271.68 158.23L1276.65 158.23L1276.65 132.68L1271.68 132.68zM1265.37 132.68 a8.8 8.8 0 1 0 17.6 0 a8.8 8.8 0 1 0 -17.6 0zM1308.19 164.5L1312.78 166.4L1325.05 136.77L1320.46 134.86zM1313.96 135.81 a8.8 8.8 0 1 0 17.6 0 a8.8 8.8 0 1 0 -17.6 0zM1339.51 184.27L1343.02 187.78L1372.58 158.22L1369.07 154.71zM1362.02 156.47 a8.8 8.8 0 1 0 17.6 0 a8.8 8.8 0 1 0 -17.6 0zM1360.89 214.51L1362.79 219.1L1404.66 201.76L1402.76 197.17zM1394.91 199.46 a8.8 8.8 0 1 0 17.6 0 a8.8 8.8 0 1 0 -17.6 0zM1179.25 253.12 a94.92 94.92 0 1 0 189.84 0 a94.92 94.92 0 1 0 -189.84 0z" fill="#488fdb"></path><path d="M1237.31 165.65 A93.92479999999999 93.92479999999999 0 0 1 1368.38 264.74M1368.38 264.74 A189.84959999999998 189.84959999999998 0 0 0 1237.31 165.65" fill="#2672c3" fill-rule="nonzero"></path><path d="M1183.23 277.42 a8.54 8.54 0 1 0 17.08 0 a8.54 8.54 0 1 0 -17.08 0zM1264.51 201.37 a18.98 18.98 0 1 0 37.96 0 a18.98 18.98 0 1 0 -37.96 0zM1269.16 279.3 a18.98 18.98 0 1 0 37.96 0 a18.98 18.98 0 1 0 -37.96 0zM1328.02 236.22 a18.98 18.98 0 1 0 37.96 0 a18.98 18.98 0 1 0 -37.96 0zM1300.07 320.21 a6.64 6.64 0 1 0 13.28 0 a6.64 6.64 0 1 0 -13.28 0zM1230.03 224.91 a10.44 10.44 0 1 0 20.88 0 a10.44 10.44 0 1 0 -20.88 0zM1222.52 296.34 a15.19 15.19 0 1 0 30.38 0 a15.19 15.19 0 1 0 -30.38 0zM1345.84 287.8 a7.59 7.59 0 1 0 15.18 0 a7.59 7.59 0 1 0 -15.18 0zM1201.17 208.72 a6.64 6.64 0 1 0 13.28 0 a6.64 6.64 0 1 0 -13.28 0zM1244.23 175.6 a4.75 4.75 0 1 0 9.5 0 a4.75 4.75 0 1 0 -9.5 0z" fill="#2672c3" fill-rule="nonzero"></path><path d="M943.61 144.55L943.61 148.28L972.19 148.28L972.19 144.55zM965.59 146.41 a6.6 6.6 0 1 0 13.2 0 a6.6 6.6 0 1 0 -13.2 0zM938.91 171.93L937.48 175.37L946.61 179.15L948.03 175.71zM940.72 177.43 a6.6 6.6 0 1 0 13.2 0 a6.6 6.6 0 1 0 -13.2 0zM924.08 195.42L921.45 198.06L934.3 210.9L936.93 208.27zM929.01 209.59 a6.6 6.6 0 1 0 13.2 0 a6.6 6.6 0 1 0 -13.2 0zM901.4 211.45L897.96 212.88L908.61 238.59L912.05 237.16zM903.73 237.88 a6.6 6.6 0 1 0 13.2 0 a6.6 6.6 0 1 0 -13.2 0zM874.31 217.58L870.58 217.58L870.58 243.74L874.31 243.74zM865.84 243.74 a6.6 6.6 0 1 0 13.2 0 a6.6 6.6 0 1 0 -13.2 0zM846.93 212.88L843.48 211.45L831.14 241.27L834.58 242.69zM826.26 241.98 a6.6 6.6 0 1 0 13.2 0 a6.6 6.6 0 1 0 -13.2 0zM823.44 198.06L820.8 195.42L806.95 209.27L809.59 211.9zM801.67 210.58 a6.6 6.6 0 1 0 13.2 0 a6.6 6.6 0 1 0 -13.2 0zM807.4 175.37L805.98 171.93L789.89 178.59L791.32 182.03zM784.01 180.31 a6.6 6.6 0 1 0 13.2 0 a6.6 6.6 0 1 0 -13.2 0zM801.27 148.28L801.27 144.55L789.33 144.55L789.33 148.28zM782.73 146.41 a6.6 6.6 0 1 0 13.2 0 a6.6 6.6 0 1 0 -13.2 0zM805.98 120.9L807.4 117.46L785.5 108.38L784.07 111.83zM778.18 110.11 a6.6 6.6 0 1 0 13.2 0 a6.6 6.6 0 1 0 -13.2 0zM820.8 97.41L823.44 94.77L799.7 71.03L797.06 73.67zM791.78 72.35 a6.6 6.6 0 1 0 13.2 0 a6.6 6.6 0 1 0 -13.2 0zM843.48 81.38L846.93 79.95L838.69 60.05L835.24 61.47zM830.36 60.76 a6.6 6.6 0 1 0 13.2 0 a6.6 6.6 0 1 0 -13.2 0zM870.58 75.24L874.31 75.24L874.31 45.84L870.58 45.84zM865.84 45.84 a6.6 6.6 0 1 0 13.2 0 a6.6 6.6 0 1 0 -13.2 0zM897.96 79.95L901.4 81.38L913.71 51.66L910.26 50.24zM905.38 50.95 a6.6 6.6 0 1 0 13.2 0 a6.6 6.6 0 1 0 -13.2 0zM921.45 94.77L924.08 97.41L947.67 73.82L945.04 71.18zM939.75 72.5 a6.6 6.6 0 1 0 13.2 0 a6.6 6.6 0 1 0 -13.2 0zM937.48 117.46L938.91 120.9L959.68 112.3L958.25 108.85zM952.36 110.58 a6.6 6.6 0 1 0 13.2 0 a6.6 6.6 0 1 0 -13.2 0zM801.25 146.41 a71.19 71.19 0 1 0 142.38 0 a71.19 71.19 0 1 0 -142.38 0z" fill="#488fdb"></path><path d="M838.36 83.91 A70.1936 70.1936 0 0 1 943.62 148M943.62 148 A142.3872 142.3872 0 0 0 838.36 83.91" fill="#2672c3" fill-rule="nonzero"></path><path d="M832.93 196.35 a14.24 14.24 0 1 0 28.48 0 a14.24 14.24 0 1 0 -28.48 0zM872.34 154.87 a14.24 14.24 0 1 0 28.48 0 a14.24 14.24 0 1 0 -28.48 0zM815.67 170.16 a7.12 7.12 0 1 0 14.24 0 a7.12 7.12 0 1 0 -14.24 0zM912.86 117.82 a11.39 11.39 0 1 0 22.78 0 a11.39 11.39 0 1 0 -22.78 0zM914.21 164.73 a10.68 10.68 0 1 0 21.36 0 a10.68 10.68 0 1 0 -21.36 0zM863.74 125.97 a4.98 4.98 0 1 0 9.96 0 a4.98 4.98 0 1 0 -9.96 0zM878.51 188.75 a4.98 4.98 0 1 0 9.96 0 a4.98 4.98 0 1 0 -9.96 0zM811.28 134.43 a14.24 14.24 0 1 0 28.48 0 a14.24 14.24 0 1 0 -28.48 0zM865.74 103.2 a2.85 2.85 0 1 0 5.7 0 a2.85 2.85 0 1 0 -5.7 0zM843.47 163.12 a3.56 3.56 0 1 0 7.12 0 a3.56 3.56 0 1 0 -7.12 0z" fill="#2672c3" fill-rule="nonzero"></path></g><defs><mask id="SvgjsMask1012"><rect width="1920" height="1080" fill="#ffffff"></rect></mask></defs></svg>